<mxfile host="app.diagrams.net" modified="2023-08-22T19:09:45.607Z" agent="Mozilla/5.0 (Windows NT 10.0; Win64; x64) AppleWebKit/537.36 (KHTML, like Gecko) Chrome/116.0.0.0 Safari/537.36" version="21.6.9" etag="i5RltQOkWKU9NN4E-WUO" type="github">
  <diagram name="PÃ¡gina-1" id="9APoP-4EfRdmiDel4D5O">
    <mxGraphModel>
      <root>
        <mxCell id="0" />
        <mxCell id="1" parent="0" />
      </root>
    </mxGraphModel>
  </diagram>
</mxfile>
